<svg width="199" height="50" viewBox="0 0 199 50" fill="none" xmlns="http://www.w3.org/2000/svg">
<path d="M48.5 25.5C48.5 38.7646 37.969 49.5 25 49.5C12.031 49.5 1.5 38.7646 1.5 25.5C1.5 12.2354 12.031 1.5 25 1.5C37.969 1.5 48.5 12.2354 48.5 25.5Z" fill="white" stroke="black"/>
<path d="M13.3822 44.8255L13.3758 44.8207L13.3697 44.8157C12.0059 43.7101 11.1209 42.8487 10.6034 41.7495C10.0871 40.6526 9.96465 39.3782 9.96465 37.5194C9.96465 36.2539 9.8176 35.1237 9.56782 34.2243C9.31504 33.3141 8.97375 32.7001 8.62933 32.3923C7.58275 31.5199 7.05015 30.0139 6.99667 28.5904C6.94347 27.1746 7.35993 25.66 8.4371 24.8184C8.68021 24.6057 8.99348 24.0689 9.26256 23.29C9.5254 22.5292 9.71665 21.6237 9.76419 20.7724L9.76408 20.7724L9.76485 20.7623C10.0288 17.2952 12.0269 13.9778 14.8411 11.5374C17.6575 9.09512 21.3422 7.4856 25.0548 7.4856C28.7674 7.4856 32.4521 9.09512 35.2684 11.5374C38.0827 13.9778 40.0807 17.2952 40.3447 20.7623L40.3448 20.7623L40.3454 20.7724C40.3929 21.6237 40.5842 22.5292 40.847 23.29C41.1161 24.0689 41.4294 24.6057 41.6725 24.8184C42.7497 25.6601 43.1661 27.1746 43.1129 28.5904C43.0594 30.014 42.5268 31.52 41.4802 32.3924C41.1358 32.7001 40.7945 33.3141 40.5418 34.2243C40.292 35.1237 40.1449 36.2539 40.1449 37.5194C40.1449 39.3782 40.0225 40.6526 39.5062 41.7495C38.9887 42.8487 38.1037 43.7101 36.7399 44.8157L36.74 44.8158L36.733 44.8212C35.6909 45.6359 35.0115 46.3002 34.6414 46.7836C34.5175 46.9455 34.4389 47.0735 34.3918 47.1689C34.5559 47.1566 34.7954 47.1054 35.1168 46.9953C35.7809 46.7678 36.708 46.3188 37.873 45.6037C44.3643 41.5913 49.2071 32.8434 49.2071 25.1052C49.2071 17.3732 45.172 10.3529 39.3131 5.80254C33.4537 1.25185 25.8204 -0.791134 18.6583 1.3563C7.28607 4.80037 0.5 13.7251 0.5 25.0051C0.5 34.2405 5.23547 42.2714 13.0072 46.2851C14.02 46.8011 14.7823 47.0775 15.2918 47.1742C15.4912 47.212 15.6291 47.2178 15.7169 47.2109C15.7131 47.2001 15.7085 47.1882 15.7033 47.1753C15.6497 47.0442 15.539 46.8592 15.3472 46.6216C14.9656 46.1489 14.321 45.5384 13.3822 44.8255Z" fill="#D41443" stroke="black"/>
<path d="M20.0345 12.9436L20.0345 12.9437L20.0247 12.9481C19.1385 13.3399 18.3397 13.7752 17.7711 14.1759C17.4853 14.3773 17.274 14.5587 17.1396 14.7097C17.0596 14.7996 17.0258 14.8576 17.0116 14.886C17.0247 14.9071 17.0507 14.9435 17.1012 14.9957C17.2148 15.1134 17.4 15.2566 17.6612 15.4169C18.1804 15.7356 18.9232 16.0758 19.7801 16.3886C21.5001 17.0165 23.5765 17.4971 25.0548 17.4971C26.5331 17.4971 28.6095 17.0165 30.3295 16.3886C31.1864 16.0758 31.9292 15.7356 32.4483 15.4169C32.7096 15.2566 32.8948 15.1134 33.0084 14.9957C33.057 14.9454 33.083 14.9098 33.0965 14.8883C33.0811 14.86 33.0462 14.8049 32.9684 14.7212C32.8292 14.5714 32.6102 14.3916 32.3133 14.1907C31.7229 13.7912 30.8939 13.3545 29.9723 12.9483C29.0533 12.5433 28.0585 12.1758 27.1434 11.9104C26.2322 11.6462 25.4348 11.4936 24.8782 11.4891C23.9206 11.5906 21.6858 12.1704 20.0345 12.9436Z" fill="#D41443" stroke="black"/>
<path d="M71.7763 18.1785L71.7763 18.1786L71.7707 18.18C71.4601 18.2625 71.2628 18.3757 71.1081 18.5629C70.9418 18.764 70.785 19.0985 70.6605 19.7003C70.4088 20.9165 70.3313 22.9885 70.3313 26.607V34.5166H73.3531H76.4578L76.1739 26.3239L76.1738 26.3232C76.0983 24.0441 76.017 22.3104 75.8716 21.0042C75.7246 19.6828 75.518 18.8709 75.2355 18.3868C75.1008 18.1559 74.9559 18.0128 74.8009 17.9208C74.6446 17.828 74.4473 17.7691 74.1815 17.7532C73.6253 17.7198 72.8653 17.8762 71.7763 18.1785Z" fill="#D41443" stroke="black"/>
<path d="M83.6641 18.631L83.6642 18.6312L83.6537 18.6369C82.0473 19.5086 81.0014 20.4499 80.3449 21.6531C79.6844 22.8637 79.3872 24.3957 79.3872 26.5069C79.3872 29.3746 80.1675 31.3926 81.5733 32.6549C82.9828 33.9205 85.1166 34.5125 88.0084 34.3177C89.0135 34.2427 89.7697 34.1691 90.3497 34.0647C90.9333 33.9596 91.2915 33.8309 91.5281 33.6739C91.9535 33.3918 92.1224 32.9319 92.2766 31.653C92.3527 31.0217 92.3899 30.5854 92.3685 30.2719C92.3476 29.9664 92.277 29.8743 92.2251 29.8307C92.1509 29.7684 91.9791 29.6916 91.5517 29.6636C91.137 29.6364 90.5724 29.6586 89.7935 29.7085C88.9978 29.7827 88.3521 29.8306 87.8467 29.7998C87.3398 29.7689 86.8762 29.6547 86.534 29.3142C86.1985 28.9804 86.0674 28.5148 86.0037 28.0049C85.9394 27.4893 85.9338 26.8241 85.9338 26.0063C85.9338 25.1846 85.9457 24.52 86.0153 24.003C86.0841 23.4923 86.2193 23.0339 86.5413 22.7038C86.8739 22.3628 87.3197 22.2447 87.8019 22.213C88.2785 22.1818 88.8775 22.2306 89.5993 22.3048C90.7965 22.4037 91.5111 22.3397 91.9625 22.1347C92.3568 21.9556 92.6117 21.6385 92.789 20.9868C92.8729 20.5568 92.8735 20.0272 92.7842 19.5387C92.6915 19.0313 92.5169 18.6479 92.3197 18.4517C92.0644 18.1977 91.5801 17.9626 90.8838 17.7969C90.2019 17.6346 89.3754 17.5525 88.5 17.5586C86.7354 17.5708 84.8693 17.9392 83.6641 18.631Z" fill="#D41443" stroke="black"/>
<path d="M95.6874 27.0829L95.6874 27.0829L95.6875 27.087L95.9699 34.0159H102.03C103.54 34.0159 104.69 34.0033 105.575 33.9526C106.467 33.9014 107.049 33.8132 107.441 33.6797C107.811 33.5537 107.982 33.398 108.093 33.2075C108.223 32.9856 108.302 32.667 108.378 32.1422L108.378 32.1422L108.379 32.1349C108.453 31.6646 108.473 31.3545 108.441 31.1402C108.413 30.9559 108.354 30.8743 108.261 30.81C108.136 30.7237 107.901 30.6386 107.453 30.5836C107.014 30.5297 106.43 30.5107 105.653 30.5107C104.61 30.5107 103.656 30.3815 102.949 30.1785C102.598 30.0779 102.283 29.9519 102.043 29.7977C101.836 29.6644 101.53 29.409 101.53 29.0096C101.53 28.6435 101.748 28.376 101.969 28.2047C102.191 28.0322 102.48 27.9037 102.785 27.8071C103.401 27.612 104.209 27.5084 105.049 27.5084C106.218 27.5084 106.829 27.3984 107.155 27.1879C107.406 27.026 107.568 26.7455 107.568 26.0061C107.568 25.2667 107.406 24.9863 107.155 24.8244C106.829 24.6139 106.218 24.5038 105.049 24.5038C104.198 24.5038 103.388 24.3722 102.775 24.1645C102.472 24.0615 102.191 23.9314 101.976 23.771C101.78 23.6246 101.53 23.3697 101.53 23.0027C101.53 22.6515 101.726 22.3854 101.941 22.2073C102.155 22.0308 102.433 21.9001 102.728 21.8023C103.323 21.6051 104.109 21.5015 104.948 21.5015C106.233 21.5015 107.269 20.999 107.84 20.3362C108.397 19.6892 108.516 18.9029 108.048 18.1648L108.048 18.1649L108.042 18.1554C108.041 18.1549 108.017 18.1213 107.927 18.0683C107.835 18.014 107.701 17.9555 107.52 17.8973C107.158 17.7811 106.664 17.6842 106.068 17.611C104.88 17.4649 103.357 17.421 101.833 17.4705C100.308 17.52 98.8043 17.6623 97.6539 17.8812C97.0764 17.9911 96.6073 18.1167 96.2746 18.251C96.1081 18.3182 95.992 18.3812 95.9178 18.4346C95.876 18.4647 95.8571 18.4848 95.8503 18.4928C95.8035 18.6321 95.7472 18.955 95.7001 19.4793C95.6527 20.0073 95.6185 20.6869 95.5998 21.4753C95.5624 23.0511 95.5872 25.0412 95.6874 27.0829Z" fill="#D41443" stroke="black"/>
<path d="M115.81 18.457L115.804 18.4599L115.797 18.4626C114.214 19.0829 113.157 19.9215 112.472 21.0691C111.779 22.2286 111.434 23.7571 111.385 25.8155C111.336 29.3751 112.038 31.6091 113.527 32.8993C115.025 34.1982 117.461 34.666 121.203 34.3185L121.203 34.3184L121.215 34.3175C121.936 34.268 122.482 34.2014 122.9 34.1029C123.317 34.0044 123.57 33.8821 123.732 33.7456C124.031 33.494 124.17 33.0674 124.17 32.0132C124.17 31.467 124.144 31.0871 124.078 30.8167C124.015 30.5609 123.928 30.4507 123.833 30.3847C123.719 30.3065 123.516 30.2364 123.119 30.2178C122.726 30.1994 122.204 30.2331 121.503 30.3078L121.503 30.3079L121.492 30.3089C120.287 30.4088 119.343 30.3992 118.627 30.0959C117.851 29.7676 117.426 29.1389 117.15 28.2585L117.15 28.2585L117.147 28.2487C116.656 26.5679 116.918 24.9975 117.794 23.8399C118.67 22.6831 120.111 22.0023 121.853 22.0023C122.769 22.0023 123.392 21.8562 123.795 21.6118C124.17 21.3837 124.397 21.0449 124.478 20.5237L124.48 20.5081L124.484 20.4927C124.627 19.8416 124.476 19.3036 124.114 18.8637C123.739 18.4079 123.112 18.0285 122.27 17.7899C120.586 17.3128 118.188 17.4431 115.81 18.457Z" fill="#D41443" stroke="black"/>
<path d="M128.356 17.9378L128.332 17.9631C128.325 17.9767 128.307 18.0118 128.283 18.0808C128.238 18.2072 128.191 18.3913 128.143 18.6362C128.049 19.1239 127.966 19.7982 127.898 20.6168C127.761 22.2505 127.686 24.4133 127.686 26.7071V34.5679L130.359 34.3185L130.359 34.3185L130.366 34.3179C131.598 34.2198 132.339 34.0034 132.829 33.6483C133.3 33.3066 133.608 32.7841 133.845 31.8905L134.447 29.393L134.883 27.5882L135.413 29.3676L136.218 32.0707L136.22 32.0786L136.222 32.0866C136.521 33.2262 136.813 33.7692 137.236 34.0715C137.673 34.3831 138.354 34.5166 139.663 34.5166C140.739 34.5166 141.542 34.4723 142.12 34.3613C142.712 34.2477 142.962 34.0832 143.068 33.9366C143.161 33.8063 143.223 33.5703 143.097 33.0686C142.972 32.5698 142.687 31.9123 142.237 31.0414L142.237 31.0414L142.235 31.0363C141.679 29.9313 141.317 29.0409 141.217 28.3009C141.111 27.5163 141.298 26.8778 141.826 26.3526C142.064 26.115 142.285 25.691 142.45 25.1023C142.611 24.5241 142.704 23.8341 142.722 23.1154C142.759 21.6558 142.484 20.1958 141.957 19.3663L141.956 19.3643C141.945 19.3467 141.902 19.2942 141.787 19.2166C141.676 19.1421 141.524 19.0606 141.327 18.9751C140.933 18.8041 140.402 18.6351 139.769 18.4757C138.504 18.1577 136.884 17.892 135.245 17.7184C133.607 17.5449 131.969 17.4655 130.668 17.5144C130.016 17.5389 129.464 17.5951 129.045 17.6825C128.836 17.7262 128.671 17.7753 128.549 17.8263C128.423 17.8792 128.37 17.9223 128.356 17.9378ZM136.741 23.0028C136.741 23.6062 136.632 24.1863 136.415 24.6352C136.205 25.0669 135.822 25.5051 135.235 25.5051C134.955 25.5051 134.718 25.3796 134.539 25.2258C134.361 25.0717 134.215 24.8684 134.1 24.6476C133.87 24.2053 133.729 23.6241 133.729 23.0028C133.729 22.3816 133.87 21.8004 134.1 21.3581C134.215 21.1373 134.361 20.9339 134.539 20.7799C134.718 20.6261 134.955 20.5005 135.235 20.5005C135.822 20.5005 136.205 20.9388 136.415 21.3704C136.632 21.8193 136.741 22.3994 136.741 23.0028Z" fill="#D41443" stroke="black"/>
<path d="M146.421 18.0167C146.398 18.0259 146.381 18.0335 146.37 18.039L146.361 18.0508C146.354 18.0688 146.345 18.0947 146.333 18.1301C146.296 18.2494 146.256 18.4275 146.215 18.6676C146.134 19.1447 146.06 19.8125 145.997 20.6258C145.873 22.2494 145.798 24.4137 145.798 26.7071V34.5166H151.838C153.426 34.5166 154.613 34.5102 155.509 34.4641C156.415 34.4173 156.965 34.3313 157.305 34.1998C157.603 34.0848 157.709 33.9505 157.774 33.7577C157.861 33.5031 157.878 33.1339 157.878 32.5137C157.878 31.4478 157.735 31.0579 157.494 30.8597C157.367 30.7544 157.162 30.6613 156.806 30.5988C156.449 30.5361 155.981 30.5109 155.36 30.5109C154.509 30.5109 153.699 30.3793 153.086 30.1715C152.783 30.0685 152.502 29.9385 152.287 29.7781C152.091 29.6316 151.841 29.3767 151.841 29.0097C151.841 28.6908 151.992 28.4309 152.188 28.241C152.378 28.0562 152.627 27.9194 152.89 27.8176C153.418 27.6133 154.113 27.5086 154.857 27.5086C155.745 27.5086 156.225 27.3794 156.487 27.1758C156.713 27.0002 156.872 26.6886 156.872 26.0063C156.872 25.324 156.713 25.0124 156.487 24.8368C156.225 24.6332 155.745 24.504 154.857 24.504C154.099 24.504 153.403 24.3702 152.879 24.153C152.619 24.0451 152.379 23.9074 152.195 23.7361C152.015 23.5686 151.841 23.3205 151.841 23.0028C151.841 22.6367 152.059 22.3693 152.28 22.198C152.502 22.0254 152.791 21.897 153.096 21.8003C153.712 21.6053 154.52 21.5017 155.36 21.5017C155.981 21.5017 156.449 21.4765 156.806 21.4138C157.162 21.3513 157.367 21.2581 157.494 21.1529C157.735 20.9547 157.878 20.5648 157.878 19.4988C157.878 18.8862 157.856 18.5099 157.77 18.251C157.702 18.0448 157.596 17.915 157.341 17.8067C157.042 17.6802 156.561 17.5949 155.76 17.5483C154.971 17.5024 153.929 17.496 152.542 17.496C150.946 17.496 149.404 17.5705 148.23 17.6935C147.641 17.7551 147.157 17.8278 146.808 17.9062C146.633 17.9456 146.505 17.9835 146.421 18.0167ZM146.377 18.0179C146.377 18.0178 146.376 18.0194 146.374 18.0229C146.376 18.0198 146.377 18.018 146.377 18.0179Z" fill="#D41443" stroke="black"/>
<path d="M161.256 33.4251L161.256 33.4251L161.257 33.4287C161.393 33.7672 161.701 34.0503 162.176 34.2465C162.651 34.4427 163.254 34.5336 163.89 34.5048C165.192 34.4459 166.413 33.906 166.896 33.0724C167.116 32.6603 167.311 32.3027 167.506 32.051C167.705 31.7952 167.988 31.5384 168.403 31.5384C168.766 31.5384 169.094 31.7429 169.378 31.9603C169.679 32.1902 170.041 32.5256 170.486 32.9432C171.537 33.8481 173.251 34.3969 174.72 34.4801C175.455 34.5217 176.073 34.443 176.485 34.2741C176.889 34.1085 176.997 33.9101 176.997 33.7153C176.997 33.6875 176.988 33.5972 176.958 33.4216C176.93 33.2569 176.887 33.0432 176.831 32.7852C176.718 32.2698 176.553 31.5915 176.346 30.8007C175.933 29.2197 175.357 27.2008 174.706 25.1572L174.706 25.1572L174.704 25.151C173.692 21.8277 173.056 20.0208 172.43 19.0115C172.128 18.5232 171.848 18.2558 171.556 18.0925C171.264 17.9287 170.917 17.8443 170.429 17.7965C169.039 17.7977 167.308 17.8969 166.457 18.0804C166.443 18.0866 166.391 18.1133 166.3 18.1989C166.199 18.2945 166.077 18.4366 165.939 18.6297C165.663 19.0153 165.351 19.5587 165.019 20.2242C164.357 21.5521 163.645 23.3109 163.014 25.1315C162.384 26.9515 161.84 28.8177 161.51 30.3581C161.345 31.1292 161.237 31.8078 161.196 32.3527C161.153 32.9212 161.191 33.2668 161.256 33.4251ZM169.633 26.8163L169.629 26.8341L169.624 26.8516C169.582 26.9885 169.539 27.1111 169.493 27.2144C169.451 27.3063 169.387 27.4291 169.287 27.5262C169.234 27.5775 169.145 27.6468 169.019 27.6793C168.877 27.7155 168.734 27.6939 168.614 27.6284C168.42 27.5228 168.342 27.3351 168.315 27.2647C168.243 27.0805 168.204 26.8246 168.18 26.5544C168.155 26.2689 168.142 25.9154 168.142 25.5059C168.142 24.6559 168.19 23.9924 168.299 23.606C168.327 23.507 168.367 23.3936 168.431 23.2927C168.489 23.2018 168.627 23.0284 168.876 22.9967C169.132 22.964 169.312 23.1055 169.393 23.1886C169.48 23.2772 169.544 23.3845 169.592 23.4793L169.613 23.521L169.626 23.5659C169.745 23.982 169.796 24.5614 169.796 25.1305C169.796 25.7058 169.744 26.3199 169.633 26.8163ZM169.246 26.9007C169.251 26.9148 169.252 26.9113 169.245 26.8975C169.245 26.8986 169.246 26.8997 169.246 26.9007Z" fill="#D41443" stroke="black"/>
<path d="M181.006 18.1597L180.99 18.1661L180.974 18.1714C180.961 18.1759 180.842 18.2326 180.692 18.5916C180.55 18.9309 180.423 19.4434 180.318 20.1593C180.11 21.586 180.009 23.7085 180.009 26.607V34.5166H182.427C183.694 34.5166 184.271 34.3791 184.608 34.096C184.942 33.8143 185.151 33.2939 185.355 32.1321L185.357 32.1195C185.455 31.4835 185.532 30.9856 185.604 30.6398C185.639 30.4672 185.679 30.3086 185.726 30.1812C185.75 30.1177 185.783 30.0428 185.83 29.972C185.874 29.9061 185.961 29.7981 186.109 29.7367C186.283 29.6647 186.455 29.6907 186.585 29.756C186.695 29.8117 186.77 29.8919 186.813 29.9451C186.901 30.0528 186.974 30.1934 187.037 30.3259C187.164 30.5974 187.32 31.0047 187.513 31.5108L187.522 31.534L187.528 31.5494L187.533 31.5651C187.712 32.1422 188.024 32.6511 188.362 33.0089C188.721 33.3888 189.025 33.5155 189.168 33.5155C189.385 33.5155 189.745 33.3646 190.147 32.9875C190.533 32.6255 190.893 32.1129 191.117 31.5331C191.317 31.0114 191.481 30.5974 191.614 30.3218C191.678 30.19 191.752 30.053 191.837 29.9493C191.877 29.9004 191.953 29.817 192.067 29.7612C192.209 29.6924 192.408 29.6708 192.594 29.7818C192.741 29.869 192.808 29.9992 192.837 30.0625C192.87 30.1367 192.89 30.2132 192.904 30.278C192.932 30.409 192.948 30.5716 192.96 30.752C192.983 31.1155 192.989 31.634 192.989 32.3034C193.014 32.9243 193.051 33.3672 193.126 33.6905C193.199 34.0089 193.295 34.148 193.392 34.2249C193.495 34.3072 193.679 34.3824 194.061 34.4048C194.442 34.4272 194.953 34.3941 195.656 34.3192L195.656 34.3192L195.661 34.3187L198.334 34.0613L198.429 26.2005L198.429 26.2005L198.429 26.1935C198.479 24.2648 198.51 22.7913 198.496 21.6543C198.482 20.5111 198.422 19.7419 198.303 19.2079C198.185 18.6856 198.022 18.4404 197.835 18.2878C197.627 18.119 197.326 18.0072 196.801 17.883L196.801 17.883L196.796 17.8816C195.316 17.5135 193.982 17.7697 192.915 18.519C191.841 19.2723 190.993 20.5556 190.562 22.3136L189.859 25.61L189.464 27.4631L188.893 25.6563L187.786 22.1523L187.786 22.1523L187.784 22.1451C187.087 19.8189 186.254 18.5051 185.234 17.9173C184.239 17.3444 182.916 17.3801 181.006 18.1597Z" fill="#D41443" stroke="black"/>
<path d="M14.5841 19.0836C14.5129 19.0841 14.4631 19.0893 14.4301 19.0947C14.4031 19.1487 14.371 19.2231 14.3362 19.3208C14.2747 19.4935 14.2143 19.712 14.1611 19.9646C14.0548 20.4702 13.9832 21.0864 13.9832 21.7013C13.9832 21.9943 13.9853 22.2174 14.0067 22.4046C14.0276 22.5879 14.0638 22.7012 14.1101 22.7808C14.1876 22.9138 14.3758 23.0898 15.0641 23.2255C15.7462 23.3601 16.7945 23.432 18.4184 23.4681C20.034 23.5039 22.1845 23.5039 25.0546 23.5039C27.9248 23.5039 30.0752 23.5039 31.6909 23.4681C33.3147 23.432 34.363 23.3601 35.0452 23.2255C35.7335 23.0898 35.9217 22.9138 35.9992 22.7808C36.0455 22.7012 36.0817 22.5879 36.1026 22.4046C36.124 22.2174 36.1261 21.9943 36.1261 21.7013C36.1261 20.8629 36.0693 20.2537 35.9523 19.8285C35.8362 19.4069 35.6824 19.2401 35.5411 19.1669C35.3858 19.0866 35.1158 19.0507 34.625 19.1735C34.1418 19.2944 33.5218 19.5494 32.7282 19.944C30.8139 20.9474 27.9057 21.4254 25.0546 21.4254C22.2036 21.4254 19.2954 20.9474 17.3812 19.944C16.6083 19.56 15.8692 19.301 15.2881 19.1738C14.9957 19.1098 14.7581 19.0824 14.5841 19.0836Z" fill="#D41443" stroke="black"/>
<path d="M28.5764 29.5108H29.0764V30.0108V33.5148C29.0764 34.4268 29.1976 35.254 29.3703 35.8384C29.4501 36.1082 29.5347 36.3052 29.6101 36.4309C29.6802 36.3222 29.7587 36.1459 29.8315 35.8922C29.9905 35.3385 30.0888 34.5375 30.0888 33.6149C30.0888 32.7954 30.1004 32.1234 30.1864 31.5894C30.2739 31.0458 30.4481 30.5792 30.8235 30.2235C31.1891 29.8771 31.6832 29.6963 32.2725 29.577C32.8631 29.4575 33.6218 29.3869 34.5716 29.3123C35.6491 29.2147 36.616 29.0204 37.3013 28.797C37.449 28.7489 37.5794 28.7007 37.6924 28.6537C37.6085 28.6365 37.5166 28.619 37.4165 28.6013C36.715 28.4773 35.6979 28.3575 34.4576 28.2468C31.9813 28.0258 28.6614 27.8448 25.302 27.7323C21.9429 27.6199 18.5533 27.5763 15.9381 27.6292C14.629 27.6557 13.5228 27.7063 12.7143 27.7831C12.3087 27.8217 11.9901 27.8658 11.7631 27.9138C11.6491 27.9378 11.5697 27.9605 11.519 27.9794C11.511 27.9823 11.5044 27.9849 11.499 27.9872C11.345 28.156 11.2708 28.2823 11.2408 28.3668C11.2144 28.4414 11.2266 28.4661 11.2332 28.4794L11.2334 28.4797C11.2483 28.5099 11.3021 28.5847 11.4724 28.6815C11.6401 28.7767 11.8863 28.8735 12.2281 28.9644C13.6149 29.3332 16.1929 29.5108 20.1242 29.5108H28.5764ZM29.7004 36.5508C29.7005 36.5505 29.6985 36.5487 29.6946 36.5461C29.6984 36.5497 29.7004 36.551 29.7004 36.5508ZM29.5303 36.5289C29.5276 36.5303 29.5263 36.5314 29.5263 36.5315C29.5263 36.5317 29.5277 36.531 29.5303 36.5289Z" fill="#D41443" stroke="black"/>
<path d="M24.3632 36.1161L24.363 36.1162L24.3607 36.103C24.2337 35.3697 24.1283 34.8762 23.9757 34.5207C23.8357 34.1944 23.6659 34.0081 23.3981 33.8748C23.0992 33.7261 22.646 33.6276 21.9025 33.5739C21.1661 33.5207 20.2039 33.5142 18.9167 33.5142H13.9832V36.4181C13.9832 37.7756 14.1026 38.8048 14.4008 39.5974C14.6909 40.3686 15.1554 40.93 15.8947 41.3527C16.6534 41.7864 17.7217 42.0853 19.2325 42.2713C20.739 42.4567 22.6451 42.5256 25.0546 42.5256C27.4642 42.5256 29.3703 42.4567 30.8768 42.2713C32.3875 42.0853 33.4559 41.7864 34.2146 41.3527C34.9539 40.93 35.4184 40.3686 35.7085 39.5974C36.0067 38.8048 36.1261 37.7756 36.1261 36.4181C36.1261 35.2333 35.9992 34.472 35.794 34.0229C35.6952 33.8065 35.5887 33.6862 35.4914 33.6184C35.398 33.5534 35.2811 33.5142 35.1168 33.5142C34.8565 33.5142 34.6285 33.6329 34.4438 33.9218C34.2481 34.2278 34.1075 34.7242 34.1075 35.4169C34.1075 36.9388 33.5854 38.1502 32.7524 39.0003C31.9246 39.8451 30.8151 40.3071 29.679 40.3834C27.3965 40.5367 24.9695 39.1324 24.3632 36.1161Z" fill="#D41443" stroke="black"/>
<path d="M20.2107 47.6259L20.2109 47.6259L20.2133 47.6386C20.3127 48.1662 20.8394 48.6588 21.8427 49.017C22.8162 49.3646 24.0912 49.5267 25.37 49.4964C26.6501 49.4661 27.8844 49.2442 28.7798 48.8622C29.7094 48.4655 30.0891 47.9876 30.0891 47.531C30.0891 47.3674 30.0461 47.2689 29.9615 47.1833C29.8592 47.0798 29.6565 46.9574 29.2621 46.8494C28.4671 46.6316 27.1213 46.5292 24.9542 46.5292C23.7749 46.5292 22.8515 46.548 22.133 46.5969C21.4078 46.6463 20.9245 46.7245 20.6088 46.8292C20.2976 46.9324 20.2237 47.0359 20.1988 47.0883C20.1646 47.1604 20.1417 47.3053 20.2107 47.6259Z" fill="#D41443" stroke="black"/>
</svg>
